# xmcd
#
# Track frame offsets:
#	150
#	34732
#	64254
#	90549
#	116029
#	139008
#	165416
#	190910
#	212700
#	235162
#	253477
#	281030
#	303948
#	328731
#	345669
#
# Disc length: 4754 seconds
#
# Revision: 1
# Processed by: cddbd v1.5.2PL0 Copyright (c) Steve Scherf et al.
# Submitted via: audiograbber 1.83.01
#
DISCID=e012900f
DTITLE=martin.von.der.rolle - cheesecake picnic party
DYEAR=2008
DGENRE=Techno
TTITLE0=justus koehncke - timecode
TTITLE1=jesus gonsev - weeks later
TTITLE2=rodriguez jr. - lila
TTITLE3=lee jones - aria
TTITLE4=solee - timba
TTITLE5=piemont - black smoker
TTITLE6=karolin mueller - blinky (argaic -eat you alive - remix)
TTITLE7=daniel steinberg - i like to be
TTITLE8=the martin brothers - dum
TTITLE9=soulclap - die ente (tanner ross remix)
TTITLE10=minimono - radio days
TTITLE11=da fresh teat. xenia beliayeva - oh boy!
TTITLE12=booka shade - charlotte (extended mix)
TTITLE13=juli holz - traenen auf dem danefloor
TTITLE14=peterlicht - das absoolute glück (daso and jin remix)
EXTD=cheesecake picnic party. mixed and compiled by martin.von.der.rolle
EXTT0=
EXTT1=
EXTT2=
EXTT3=
EXTT4=
EXTT5=
EXTT6=
EXTT7=
EXTT8=
EXTT9=
EXTT10=
EXTT11=
EXTT12=
EXTT13=
EXTT14=
PLAYORDER=
